<?xml version="1.0" encoding="utf-8"?>
<svg width="63.126" height="21" viewBox="0 0 63.126 21" fill="none" stroke="none" version="1.1" xmlns:xlink="http://www.w3.org/1999/xlink" xmlns="http://www.w3.org/2000/svg">
  <g id="Group" transform="translate(0.75 0.75)">
    <path id="Shape" d="M12.6262 8.25C12.6262 8.25 12.6262 3.75 12.6262 3.75C12.6262 1.67893 10.9473 0 8.87621 0C6.80514 0 5.12621 1.67893 5.12621 3.75C5.12621 3.75 5.12621 8.25 5.12621 8.25M16.4822 6.257C16.4822 6.257 17.7452 18.257 17.7452 18.257C17.8152 18.922 17.2952 19.5 16.6262 19.5C16.6262 19.5 1.12621 19.5 1.12621 19.5C0.807095 19.5003 0.502848 19.3651 0.289234 19.1281C0.0756196 18.891 -0.0272611 18.5744 0.00621071 18.257C0.00621071 18.257 1.27021 6.257 1.27021 6.257C1.3306 5.68446 1.81349 5.2499 2.38921 5.25C2.38921 5.25 15.3632 5.25 15.3632 5.25C15.9392 5.25 16.4222 5.685 16.4822 6.257C16.4822 6.257 16.4822 6.257 16.4822 6.257ZM5.50121 8.25C5.50121 8.45711 5.33332 8.625 5.12621 8.625C4.9191 8.625 4.75121 8.45711 4.75121 8.25C4.75121 8.04289 4.9191 7.875 5.12621 7.875C5.33332 7.875 5.50121 8.04289 5.50121 8.25C5.50121 8.25 5.50121 8.25 5.50121 8.25ZM13.0012 8.25C13.0012 8.45711 12.8333 8.625 12.6262 8.625C12.4191 8.625 12.2512 8.45711 12.2512 8.25C12.2512 8.04289 12.4191 7.875 12.6262 7.875C12.8333 7.875 13.0012 8.04289 13.0012 8.25C13.0012 8.25 13.0012 8.25 13.0012 8.25Z" style="fill:none;stroke-width:1.5;stroke:#2563EB;stroke-linecap:round;stroke-linejoin:round;mix-blend-mode:normal;" />
    <g style="mix-blend-mode:normal;" transform="translate(20.376 2.15)">
      <path d="M0.860795 2.89773L2.79545 2.89773L5.38636 9.22159L5.48864 9.22159L8.07955 2.89773L10.0142 2.89773L10.0142 11.625L8.49716 11.625L8.49716 5.62926L8.41619 5.62926L6.00426 11.5994L4.87074 11.5994L2.45881 5.61648L2.37784 5.61648L2.37784 11.625L0.860795 11.625L0.860795 2.89773ZM13.5511 11.7571Q12.6136 11.7571 11.9872 11.2543Q11.3608 10.7514 11.3608 9.78835Q11.3608 9.05114 11.7166 8.64418Q12.0724 8.23722 12.6413 8.05185Q13.2102 7.86648 13.8452 7.7983Q14.7102 7.70455 15.0874 7.62358Q15.4645 7.54261 15.4645 7.21023L15.4645 7.18466Q15.4645 6.70313 15.179 6.43892Q14.8935 6.17472 14.3565 6.17472Q13.7898 6.17472 13.4595 6.42188Q13.1293 6.66903 13.0142 7.00568L11.5739 6.80114Q11.8295 5.90625 12.5732 5.45028Q13.3168 4.99432 14.348 4.99432Q14.8168 4.99432 15.2855 5.10511Q15.7543 5.21591 16.1442 5.47159Q16.5341 5.72727 16.7706 6.16193Q17.0071 6.59659 17.0071 7.24432L17.0071 11.625L15.5241 11.625L15.5241 10.7259L15.473 10.7259Q15.2642 11.1392 14.7933 11.4482Q14.3224 11.7571 13.5511 11.7571ZM13.9517 10.6236Q14.6506 10.6236 15.0597 10.223Q15.4688 9.82244 15.4688 9.27699L15.4688 8.50568Q15.3707 8.58665 15.1087 8.64844Q14.8466 8.71023 14.5526 8.75284Q14.2585 8.79545 14.054 8.82528Q13.5384 8.89773 13.1932 9.10866Q12.848 9.3196 12.848 9.76278Q12.848 10.1889 13.1591 10.4063Q13.4702 10.6236 13.9517 10.6236ZM18.5625 11.625L18.5625 5.07955L20.0582 5.07955L20.0582 6.17045L20.1264 6.17045Q20.3054 5.59943 20.7422 5.29261Q21.179 4.9858 21.7415 4.9858Q21.8693 4.9858 22.0291 4.99645Q22.1889 5.0071 22.2955 5.02841L22.2955 6.44744Q22.1974 6.41335 21.9865 6.38565Q21.7756 6.35795 21.5795 6.35795Q20.9446 6.35795 20.5249 6.75639Q20.1051 7.15483 20.1051 7.77699L20.1051 11.625L18.5625 11.625ZM26.9446 5.07955L26.9446 6.27273L25.6534 6.27273L25.6534 9.65625Q25.6534 10.1207 25.858 10.2678Q26.0625 10.4148 26.3523 10.4148Q26.4972 10.4148 26.6186 10.3935Q26.7401 10.3722 26.804 10.3551L27.0639 11.5611Q26.9403 11.6037 26.7124 11.6548Q26.4844 11.706 26.1563 11.7145Q25.2869 11.7401 24.6967 11.2884Q24.1065 10.8366 24.1108 9.91193L24.1108 6.27273L23.1818 6.27273L23.1818 5.07955L24.1108 5.07955L24.1108 3.51136L25.6534 3.51136L25.6534 5.07955L26.9446 5.07955ZM28.2358 11.625L28.2358 5.07955L29.7784 5.07955L29.7784 11.625L28.2358 11.625ZM29.0114 4.15057Q28.6406 4.15057 28.3785 3.90554Q28.1165 3.66051 28.1165 3.31534Q28.1165 2.96591 28.3785 2.72088Q28.6406 2.47585 29.0114 2.47585Q29.3778 2.47585 29.6399 2.72088Q29.902 2.96591 29.902 3.31534Q29.902 3.66051 29.6399 3.90554Q29.3778 4.15057 29.0114 4.15057ZM34.679 5.07955L34.679 6.27273L33.3196 6.27273L33.3196 11.625L31.777 11.625L31.777 6.27273L30.8097 6.27273L30.8097 5.07955L31.777 5.07955L31.777 4.46165Q31.777 3.80114 32.0518 3.36222Q32.3267 2.9233 32.7912 2.70597Q33.2557 2.48864 33.8224 2.48864Q34.223 2.48864 34.5341 2.55256Q34.8452 2.61648 34.9943 2.66761L34.6832 3.8608Q34.5895 3.83097 34.4403 3.79901Q34.2912 3.76705 34.108 3.76705Q33.6776 3.76705 33.4986 3.97372Q33.3196 4.1804 33.3196 4.56392L33.3196 5.07955L34.679 5.07955ZM36.848 14.0795Q36.5327 14.0795 36.2663 14.0305Q36 13.9815 35.8423 13.9176L36.2003 12.7159Q36.7074 12.8608 37.0526 12.767Q37.3977 12.6733 37.6108 12.1151L37.7429 11.7614L35.3693 5.07955L37.0057 5.07955L38.5142 10.0227L38.5824 10.0227L40.0952 5.07955L41.7358 5.07955L39.1151 12.4176Q38.8381 13.2017 38.2947 13.6406Q37.7514 14.0795 36.848 14.0795Z" style="fill:#2563EB;" />
    </g>
  </g>
</svg>